<!DOCTYPE svg PUBLIC "-//W3C//DTD SVG 1.1//EN" "http://www.w3.org/Graphics/SVG/1.1/DTD/svg11.dtd" [
    <!ENTITY ns_svg "http://www.w3.org/2000/svg">
    <!ENTITY ns_xlink "http://www.w3.org/1999/xlink">
]>

<svg version="1.1" width="555px" height="265px" xmlns="&ns_svg;" xmlns:xlink="&ns_xlink;">
    <style><![CDATA[
        .stroke {
            fill: none;
            stroke: hsl(0,0%,58%);
            stroke-width: 2px;
            stroke-linecap: round;
            stroke-linejoin: round;
            stroke-miterlimit: 1.5;
        }

        .timeline-bg {
            opacity: 0.54;
        }

        .diff {
            stroke: hsl(150,75%,62%);
            stroke-width: 4px;
        }

        .fill {
            fill: hsl(0,0%,45%);
            stroke: none;
        }

        .fill.unselected {
            opacity: 0.5;
        }

        .fill.selected {
            fill: hsl(150,75%,62%);
            opacity: 0.5;
        }

        text {
            fill: hsl(0,0%,53%);
            font-family: sans-serif;
            font-weight: 700;
            font-size: 20px;
        }

        .label {
            font-size: 13px;
        }
    ]]></style>

    <g id="timeline-top">
        <g id="timeline-top-subs-unselected">
            <rect class="fill unselected" x="41" y="54" width="16" height="38"/>
            <rect class="fill unselected" x="90" y="54" width="16" height="38"/>
            <rect class="fill unselected" x="113" y="54" width="42" height="38"/>
            <rect class="fill unselected" x="423" y="54" width="8" height="38"/>
            <rect class="fill unselected" x="467" y="54" width="9" height="38"/>
            <rect class="fill unselected" x="488" y="54" width="6" height="38"/>
        </g>
        <g id="timeline-top-subs-selected">
            <rect class="fill selected" x="198" y="54" width="6" height="38"/>
            <rect class="fill selected" x="218" y="54" width="14" height="38"/>
            <rect class="fill selected" x="266" y="54" width="13" height="38"/>
            <rect class="fill selected" x="298" y="54" width="25" height="38"/>
            <rect class="fill selected" x="341" y="54" width="8" height="38"/>
        </g>
        <path id="timeline-top-background" class="stroke timeline-bg" d="M532,53L19,53L23,62.398L19,69.551L23,77.047L19,84.058L23,93L536,93L532,84.089L536,77.105L532,70.095L536,62.438L532,53Z"/>
    </g>
    <g id="timeline-bottom">
        <g id="timeline-bottom-subs-unselected">
            <rect class="fill unselected" x="41" y="166" width="16" height="38"/>
            <rect class="fill unselected" x="90" y="166" width="16" height="38"/>
            <rect class="fill unselected" x="113" y="166" width="42" height="38"/>
            <rect class="fill unselected" x="423" y="166" width="8" height="38"/>
            <rect class="fill unselected" x="467" y="166" width="9" height="38"/>
            <rect class="fill unselected" x="488" y="166" width="6" height="38"/>
        </g>
        <g id="timeline-bottom-subs-selected">
            <rect class="fill selected" x="190" y="166" width="9" height="38"/>
            <rect class="fill selected" x="220" y="166" width="21" height="38"/>
            <rect class="fill selected" x="293" y="166" width="20" height="38"/>
            <rect class="fill selected" x="341" y="166" width="38" height="38"/>
            <rect class="fill selected" x="410" y="166" width="8" height="38"/>
        </g>
        <path id="timeline-bottom-background" class="stroke timeline-bg" d="M532,165L19,165L23,174.398L19,181.551L23,189.047L19,196.058L23,205L536,205L532,196.089L536,189.105L532,182.095L536,174.438L532,165Z"/>
    </g>
    <g id="diff-lines">
        <path class="stroke diff" d="M196,37L196,109L188,149L188,221"/>
        <path class="stroke diff" d="M339,37L339,109L408,149L408,221"/>
    </g>
    <g id="text">
        <g id="text-before">
            <text class="heading" x="19px" y="32.316px">BEFORE</text>
            <text class="label" x="139.75px" y="27.306px">ORIGINAL TIME A</text>
            <text class="label" x="283.509px" y="27.306px">ORIGINAL TIME B</text>
        </g>
        <g id="text-after">
            <text class="heading" x="19px" y="144.316px">AFTER</text>
            <text class="label" x="149.244px" y="242.306px">NEW TIME A</text>
            <text class="label" x="369.003px" y="242.306px">NEW TIME B</text>
        </g>
    </g>
</svg>
